<svg xmlns="http://www.w3.org/2000/svg" width="400" height="400" viewBox="0 0 400 400"><defs><clipPath id="a"><path d="M387.879 194H400v12h-12.121zm0 0"/></clipPath><clipPath id="b"><path d="M194 0h12v12.121h-12zm0 0"/></clipPath></defs><path fill="#fff" d="M0 0h400v400H0z"/><path d="M0 199.5h394v1H0zm0 0"/><g clip-path="url(#a)"><path d="M387.879 194l12 6-12 6 6-6zm0 0"/></g><path d="M236 0v400M273 0v400M309 0v400M345 0v400M382 0v400M164 0v400M127 0v400M91 0v400M55 0v400M18 0v400"/><path d="M236.5 0v400c0 .277-.223.5-.5.5a.498.498 0 0 1-.5-.5V0c0-.277.223-.5.5-.5s.5.223.5.5zm37 0v400c0 .277-.223.5-.5.5a.498.498 0 0 1-.5-.5V0c0-.277.223-.5.5-.5s.5.223.5.5zm36 0v400c0 .277-.223.5-.5.5a.498.498 0 0 1-.5-.5V0c0-.277.223-.5.5-.5s.5.223.5.5zm36 0v400c0 .277-.223.5-.5.5a.498.498 0 0 1-.5-.5V0c0-.277.223-.5.5-.5s.5.223.5.5zm37 0v400c0 .277-.223.5-.5.5a.498.498 0 0 1-.5-.5V0c0-.277.223-.5.5-.5s.5.223.5.5zm-218 0v400c0 .277-.223.5-.5.5a.498.498 0 0 1-.5-.5V0c0-.277.223-.5.5-.5s.5.223.5.5zm-37 0v400c0 .277-.223.5-.5.5a.498.498 0 0 1-.5-.5V0c0-.277.223-.5.5-.5s.5.223.5.5zm-36 0v400c0 .277-.223.5-.5.5a.498.498 0 0 1-.5-.5V0c0-.277.223-.5.5-.5s.5.223.5.5zm-36 0v400c0 .277-.223.5-.5.5a.498.498 0 0 1-.5-.5V0c0-.277.223-.5.5-.5s.5.223.5.5zm-37 0v400c0 .277-.223.5-.5.5a.498.498 0 0 1-.5-.5V0c0-.277.223-.5.5-.5s.5.223.5.5zm0 0" fill="#666" fill-opacity=".251"/><path d="M199.5 400V6h1v394zm0 0"/><g clip-path="url(#b)"><path d="M194 12.121l6-12 6 12-6-6zm0 0"/></g><path d="M0 164h400M0 127h400M0 91h400M0 55h400M0 18h400M0 236h400M0 273h400M0 309h400M0 345h400M0 382h400"/><path d="M0 163.5h400c.277 0 .5.223.5.5s-.223.5-.5.5H0a.498.498 0 0 1-.5-.5c0-.277.223-.5.5-.5zm0-37h400c.277 0 .5.223.5.5s-.223.5-.5.5H0a.498.498 0 0 1-.5-.5c0-.277.223-.5.5-.5zm0-36h400c.277 0 .5.223.5.5s-.223.5-.5.5H0a.498.498 0 0 1-.5-.5c0-.277.223-.5.5-.5zm0-36h400c.277 0 .5.223.5.5s-.223.5-.5.5H0a.498.498 0 0 1-.5-.5c0-.277.223-.5.5-.5zm0-37h400c.277 0 .5.223.5.5s-.223.5-.5.5H0a.498.498 0 0 1-.5-.5c0-.277.223-.5.5-.5zm0 218h400c.277 0 .5.223.5.5s-.223.5-.5.5H0a.498.498 0 0 1-.5-.5c0-.277.223-.5.5-.5zm0 37h400c.277 0 .5.223.5.5s-.223.5-.5.5H0a.498.498 0 0 1-.5-.5c0-.277.223-.5.5-.5zm0 36h400c.277 0 .5.223.5.5s-.223.5-.5.5H0a.498.498 0 0 1-.5-.5c0-.277.223-.5.5-.5zm0 36h400c.277 0 .5.223.5.5s-.223.5-.5.5H0a.498.498 0 0 1-.5-.5c0-.277.223-.5.5-.5zm0 37h400c.277 0 .5.223.5.5s-.223.5-.5.5H0a.498.498 0 0 1-.5-.5c0-.277.223-.5.5-.5zm0 0" fill="#666" fill-opacity=".251"/><path d="M1-2000.047l2.684 58.664-1 .047 1-.047 2.683 57.871-1 .047 1-.047 2.684 57.078-.996.047.996-.047 2.687 56.286-1 .046 1-.046 2.684 55.492-1 .05 1-.05 2.683 54.699-1 .05 1-.05 2.684 53.906-.996.051.996-.05 2.688 53.116-1 .047 1-.05 2.683 52.324-1 .05 1-.05 2.684 51.527-1 .05 1-.05 2.683 50.734-.996.055.996-.055 2.688 49.946-1 .05 1-.05 2.683 49.148-1 .055 1-.055 2.684 48.36-1 .054 1-.058 2.684 47.566-.996.059.996-.059 2.687 46.774-1 .054 1-.058 2.684 45.98-1 .059 1-.059 2.683 45.188-1 .058 1-.058 2.684 44.394-.996.059.996-.063 2.684 43.602-.997.062.996-.062 2.688 42.808-1 .063 1-.063 2.684 42.016-1 .062 1-.062 2.683 41.223-.996.062.996-.062 2.684 40.43-.996.066.996-.07 2.687 39.64-1 .066 1-.07 2.684 38.848-1 .066 1-.07 2.683 38.055-.996.07.996-.074 2.684 37.261-.996.07.996-.074 2.688 36.47-1 .073.996-.074 2.687 35.672-1 .074 1-.074 2.684 34.879-.996.078.996-.078 2.683 34.086-.996.082.996-.082 2.684 33.297-.996.078.996-.082 2.687 32.504-1 .082 1-.086 2.684 31.71-.996.087.996-.086 2.684 30.918-.996.086.996-.09 2.683 30.125-.996.09.996-.094 2.684 29.332-.996.094.996-.094 2.687 28.54-.996.093.992-.098 2.688 27.746-.996.098.996-.098 2.683 26.953-.996.098.996-.101 2.684 26.16-.996.101.996-.105 2.684 25.37-.993.106.993-.11 2.683 24.575-.992.11.992-.114 2.688 23.781-.996.114.992-.113 2.687 22.988-.996.117.996-.121 2.684 22.195-.992.121.992-.125 2.684 21.407-.993.125.993-.13 2.683 20.61-.992.129.992-.133 2.684 19.82-.992.133.992-.14 2.683 19.027-.988.14.988-.148 2.684 18.235-.988.144.988-.152 2.684 17.441-.989.152.989-.16 2.683 16.649-.988.16.988-.168 2.684 15.855-.985.168.985-.175 2.683 15.062-.984.176.98-.184 2.688 14.27-.984.183.98-.195 2.684 13.477-.98.195.98-.207 2.683 12.683-.976.208.972-.22 2.688 11.891-.977.22.973-.235 2.683 11.097-.972.239.969-.254 2.683 10.305-.969.253.965-.273 2.684 9.516-.961.27.953-.294 2.688 8.719-.958.297.946-.32 2.687 7.925-.949.32.938-.351 2.683 7.133-.937.355.922-.39 2.683 6.34-.918.39.899-.433 2.683 5.546-.898.438.87-.492 2.684 4.758-.87.488.827-.559 2.684 3.965-.828.559.766-.645 2.683 3.172-.762.645.66-.75 2.688 2.378-.664.75.508-.863 2.683 1.586-.507.863.285-.96 2.683.792-.285.961v-1h2.688v1l-.285-.96 2.683-.794.285.961-.507-.863 2.683-1.586.508.863-.664-.75 2.687-2.378.66.75-.761-.645 2.683-3.172.766.645-.828-.559 2.684-3.965.828.559-.871-.488 2.683-4.758.871.492-.898-.438 2.683-5.546.899.433-.918-.39 2.683-6.34.922.39-.937-.355 2.683-7.133.938.352-.95-.32 2.688-7.927.946.32-.958-.296 2.688-8.719.953.293-.96-.27 2.683-9.515.965.273-.97-.254 2.684-10.304.97.254-.973-.239 2.683-11.097.973.234-.977-.219 2.688-11.89.972.219-.976-.207 2.683-12.684.98.207-.98-.195L246 78.414l.98.195-.984-.183 2.688-14.27.98.184-.984-.176 2.683-15.062.985.175-.985-.168 2.684-15.855.988.168-.988-.16 2.683-16.649.989.16-.989-.152L259.414-.82l.988.152-.988-.144 2.684-18.235.988.149-.988-.141 2.683-19.027.992.14-.992-.133 2.684-19.82.992.133-.992-.129 2.683-20.61.993.13-.993-.125 2.684-21.407.992.125-.992-.12 2.684-22.196.996.121-.996-.117 2.687-22.989.992.114-.996-.113 2.688-23.782.992.114-.992-.11 2.683-24.574.993.11-.993-.106 2.684-25.371.996.105-.996-.101 2.683-26.16.997.101-.997-.098 2.684-26.953.996.098-.996-.098 2.688-27.746.992.098-.996-.094 2.687-28.539.996.094-.996-.094 2.684-29.332.996.094-.996-.09 2.683-30.125.996.09-.996-.086 2.684-30.918.996.086-.996-.086 2.684-31.711 1 .086-1-.082 2.687-32.504.996.082-.996-.078 2.684-33.297.996.082-.996-.082 2.683-34.086.996.078-.996-.078 2.684-34.879 1 .074-1-.074 2.687-35.672.996.074-1-.074 2.688-36.469.996.075-.996-.07 2.684-37.262.996.074-.996-.07 2.683-38.055 1 .07-1-.066 2.684-38.848 1 .07-1-.066 2.687-39.64.996.07-.996-.067 2.684-40.43.996.063-.996-.062 2.683-41.223 1 .062-1-.062 2.684-42.016 1 .063-1-.063 2.688-42.808.996.062-.997-.062 2.684-43.602.996.063-.996-.059 2.684-44.394 1 .058-1-.058 2.683-45.188 1 .059-1-.059 2.684-45.98 1 .058-1-.054 2.687-46.774.996.059-.996-.059 2.684-47.566 1 .058-1-.054 2.684-48.36 1 .055-1-.055 2.683-49.148 1 .05-1-.05 2.688-49.946.996.055-.996-.055 2.683-50.734 1 .05-1-.05 2.684-51.527 1 .05-1-.05 2.683-52.324 1 .05-1-.047 2.688-53.117.996.051-.996-.05 2.684-53.907 1 .05-1-.05 2.683-54.7 1 .052-1-.051 2.684-55.492 1 .046-1-.046 2.687-56.286.996.047-.996-.047 2.684-57.078.996.047-.996-.047 2.683-57.87 1 .046-1-.047 2.684-58.664c.027-.55.492-.976 1.047-.953.55.027.976.492.953 1.047l-2.688 58.664-2.683 57.871-2.684 57.078-2.683 56.285v.004l-2.688 55.492-2.683 54.7-2.684 53.91-2.684 53.113v.004l-2.687 52.32-2.684 51.532-2.683 50.734v.004l-2.684 49.941-2.687 49.153-2.684 48.359-2.684 47.566-2.683 46.774-2.688 45.98-2.683 45.188v.004l-2.684 44.394-2.683 43.602-2.688 42.808v.004-.004l-2.683 42.02-2.684 41.223-2.688 40.433-2.683 39.637v.004l-2.684 38.843-2.683 38.055-2.688 37.262-2.683 36.469-2.684 35.672v.003l-2.684 34.883-2.687 34.09-2.684 33.297-2.683 32.504v.004l-2.688 31.707v.004l-2.683 30.918v.004l-2.684 30.12v.005l-2.688 29.332v.004l-2.683 28.539-2.684 27.75-2.683 26.953v.004h-.004l-2.684 26.16v.004l-2.683 25.367v.004l-2.684 24.578-.004.004-2.683 23.781v.004l-2.684 22.988v.004l-2.688 22.2v.003l-2.683 21.407v.003l-2.684 20.61v.008l-2.687 19.816v.008l-2.684 19.023v.008L261.391-.52v.004l-2.684 17.442v.008l-2.687 16.648v.008l-2.684 15.855c0 .004 0 .004-.004.008l-2.684 15.063v.007l-2.687 14.27v.012l-2.684 13.476c-.004.004-.004.008-.004.012l-2.683 12.684c0 .003-.004.011-.004.015l-2.684 11.89c0 .005-.004.009-.004.016l-2.683 11.098c-.004.004-.004.012-.004.016l-2.688 10.304c0 .008-.003.016-.003.02l-2.684 9.516c-.004.007-.004.015-.008.023l-2.683 8.719a.072.072 0 0 0-.008.027l-2.688 7.926a.12.12 0 0 0-.008.031h-.004l-2.683 7.137c-.004.012-.008.023-.016.035l-2.683 6.344c-.008.015-.012.031-.02.047l-2.683 5.547c-.012.019-.02.039-.032.058l-2.683 4.754c-.016.023-.028.047-.043.07l-2.684 3.965c-.023.028-.043.059-.066.086l-2.684 3.168c-.031.04-.066.07-.101.106l-2.684 2.375a.885.885 0 0 1-.156.113l-2.684 1.586a.903.903 0 0 1-.226.097l-2.684.793a.962.962 0 0 1-.281.043h-2.688a.962.962 0 0 1-.281-.043l-2.684-.793a.903.903 0 0 1-.226-.097l-2.684-1.586a.885.885 0 0 1-.156-.113l-2.684-2.375c-.035-.036-.07-.067-.101-.106l-2.684-3.168c-.023-.027-.043-.059-.066-.086l-2.684-3.965c-.015-.023-.027-.047-.043-.07l-2.683-4.754c-.012-.02-.02-.039-.032-.059l-2.683-5.546c-.008-.016-.012-.032-.02-.047l-2.683-6.344c-.008-.012-.012-.023-.016-.035l-2.684-7.137c-.007-.008-.007-.02-.011-.031l-2.688-7.926a.072.072 0 0 0-.008-.027l-2.683-8.719c-.004-.008-.004-.016-.008-.023l-2.684-9.516c-.003-.004-.003-.012-.003-.016v-.004l-2.688-10.304c0-.004 0-.012-.004-.016l-2.683-11.098c0-.007-.004-.011-.004-.015l-2.684-11.89c0-.009-.004-.013-.004-.016l-2.683-12.684c0-.004-.004-.008-.004-.012l-2.684-13.476v-.012l-2.687-14.27v-.007l-2.684-15.063c-.004-.004-.004-.008-.004-.008L143.98 33.59v-.008l-2.687-16.648v-.008L138.609-.516V-.52l-2.687-18.234v-.008l-2.684-19.023v-.008l-2.687-19.816v-.008l-2.684-20.61v-.003l-2.683-21.407v-.004l-2.688-22.199v-.004l-2.683-22.988v-.004l-2.684-23.781-.004-.004-2.684-24.578v-.004l-2.683-25.367v-.004l-2.684-26.16c-.004 0-.004 0-.004-.004l-2.683-26.953-2.684-27.75-2.683-28.54c0-.003 0-.003-.004-.003h.004l-2.688-29.332v-.004l-2.684-30.121v-.004l-2.683-30.918v-.004l-2.688-31.707v-.004l-2.683-32.504-2.684-33.297-2.687-34.09-2.684-34.883v-.003l-2.684-35.672-2.683-36.47-2.688-37.26-2.683-38.056-2.684-38.843v-.004l-2.683-39.637-2.688-40.433-2.684-41.223-2.683-42.02-2.688-42.808-2.683-43.602-2.684-44.394v-.004l-2.683-45.188-2.688-45.98-2.683-46.774-2.684-47.566-2.684-48.36-2.687-49.152-2.684-49.941v-.004l-2.683-50.734-2.684-51.532-2.687-52.32v-.004l-2.684-53.113-2.684-53.91-2.683-54.7-2.688-55.492v-.004l-2.683-56.285-2.684-57.078-2.684-57.871L-1-1999.953A1.003 1.003 0 0 1-.047-2001a1.003 1.003 0 0 1 1.047.953zm0 0" fill="#00f"/><path d="M-.895 599.555l2.684-5.371.895.445-.895-.445 2.688-5.368-.004-.004.004.004 2.683-5.37.895.449-.895-.45 2.684-5.367.894.445-.894-.445 2.683-5.371.895.45-.895-.45 2.688-5.367-.004-.004.004.004 2.683-5.371.895.449-.895-.45 2.684-5.366.895.445-.895-.445 2.684-5.372 2.687-5.367.89.446-.89-.446 2.684-5.37 2.683-5.368.895.445-.895-.445 2.684-5.371.894.45-.894-.45 2.687-5.367 2.684-5.371 2.684-5.368c0-.003 0-.003 0 0l2.683-5.37 2.684-5.368.894.445-.894-.445 2.687-5.37 2.684-5.368.894.445-.894-.445 2.683-5.371 2.684-5.367 2.688-5.372.894.45-.894-.45 2.683-5.367 2.684-5.37.894.448-.894-.449 2.683-5.367 2.688-5.371.894.45-.894-.45 2.683-5.367 2.684-5.371 2.684-5.368.894.446-.894-.446 2.687-5.37 2.684-5.368.894.445-.894-.445 2.683-5.37 2.684-5.368.894.445-.894-.445 2.687-5.371 2.684-5.367 2.684-5.371.894.449-.894-.45 2.683-5.367 2.688-5.37.894.448-.894-.449 2.683-5.367 2.684-5.371.894.45-.894-.45 2.683-5.367 2.688-5.371 2.684-5.368.894.446-.894-.445 2.683-5.372 2.684-5.367.894.446-.894-.446 2.687-5.37 2.684-5.368 2.683-5.371 2.684-5.367 2.688-5.371 2.683-5.368 2.684-5.37 2.683-5.368 2.688-5.371 2.683-5.367 2.684-5.371 2.684-5.367 2.687-5.372 2.684-5.367 2.683-5.37 2.684-5.368 2.687-5.371 2.684-5.367 2.684-5.371 2.683-5.368.895.446-.895-.446 2.688-5.37 2.683-5.368.895.445-.895-.445 2.684-5.371 2.683-5.367 2.688-5.371.894.449-.894-.45 2.684-5.366 2.683-5.372.895.45-.895-.45 2.684-5.367 2.687-5.37.895.448-.895-.449 2.684-5.367 2.683-5.371.895.45-.895-.45 2.684-5.367 2.688-5.371 2.683-5.368.895.446-.895-.446 2.684-5.37 2.683-5.368.895.445-.895-.445 2.688-5.37 2.683-5.368.895.445-.895-.445 2.684-5.371 2.684-5.367 2.687-5.371.895.449-.895-.45 2.684-5.367 2.683-5.37.895.448-.895-.449 2.684-5.367 2.687-5.371.895.45-.895-.45 2.684-5.367 2.684-5.371 2.683-5.368.895.446-.895-.446 2.688-5.37 2.683-5.368 2.684-5.37.894.448-.894-.449 2.683-5.367 2.688-5.371 2.683-5.367.895.445-.894-.445 2.683-5.371 2.684-5.368 2.687-5.37.895.448-.895-.449 2.684-5.367.894.445-.894-.445 2.683-5.371 2.684-5.367.894.445-.894-.445 2.687-5.371 2.684-5.367 2.684-5.372.894.45-.894-.45 2.683-5.367 2.688-5.37.894.448-.894-.449 2.683-5.367.895.445-.895-.445 2.684-5.371.894.45-.894-.45 2.684-5.367.894.445-.894-.445 2.687-5.371 2.684-5.368 2.683-5.37.895.448-.895-.449 2.684-5.367.894.445-.894-.445 2.687-5.371 2.684-5.367 2.683-5.371.895.449-.894-.45 2.683-5.366 2.688-5.372.894.45-.894-.45 2.683-5.367 2.684-5.37.894.448-.894-.449 2.683-5.367 2.688-5.371 2.683-5.367.895.445-.895-.445 2.684-5.371 2.684-5.368 2.687-5.37 2.684-5.368.894.445-.894-.445 2.683-5.371 2.684-5.367 2.687-5.371 2.684-5.367 2.684-5.372.894.45-.894-.45 2.683-5.367 2.688-5.37 2.683-5.368 2.684-5.371 2.683-5.367.895.445-.894-.445 2.687-5.371h-.004.004l5.367-10.735.895.446-.895-.446 2.684-5.37.894.444-.894-.445 2.687-5.367-.004-.004.004.004 2.684-5.371 2.683-5.367a.998.998 0 0 1 1.34-.45.998.998 0 0 1 .45 1.34l-2.684 5.371-2.688 5.368-.894-.446.894.446-2.683 5.37-2.684 5.368v.004-.004l-2.683 5.371-2.688 5.367-.89-.445.89.445-2.683 5.371-2.684 5.367-2.684 5.372-2.687 5.367-.89-.446.89.446-2.684 5.37-.894-.448.894.449-2.683 5.367c0 .004 0 .004 0 0l-2.684 5.371-2.687 5.367-2.684 5.371-.895-.449.895.45-2.684 5.367-.894-.446.894.446-2.683 5.37-2.684 5.368-2.687 5.37-.895-.448.895.449-2.684 5.367-.894-.445.894.445-2.683 5.371-2.684 5.367-2.688 5.371-.894-.449.894.45-2.683 5.367-2.684 5.37-.894-.448.894.449-2.683 5.367-2.688 5.371-.894-.45.894.45-2.683 5.367-2.684 5.371-.895-.449.895.45-2.684 5.367-.894-.446.894.446-2.687 5.37-2.684 5.368-.894-.445.894.445-2.683 5.37-2.684 5.368-.894-.445.894.445-2.687 5.371-2.684 5.367-.895-.445.895.445-2.684 5.371-.894-.449.894.45-2.683 5.367-.895-.446.895.446-2.688 5.37-.894-.448.894.449-2.683 5.367-2.684 5.371-2.683 5.367-2.688 5.371-.894-.449.894.45-2.684 5.366-.894-.445.894.446-2.683 5.37-2.684 5.368-2.687 5.37-.895-.448.895.449-2.684 5.367-.894-.445.894.445-2.683 5.371-2.684 5.367-2.688 5.371-.894-.449.894.45-2.683 5.367-2.684 5.37-.894-.448.894.449-2.683 5.367-.895-.445.895.445-2.688 5.371-2.683 5.367-2.684 5.371-.895-.449.895.45-2.684 5.366-2.687 5.372-.895-.45.895.45-2.684 5.367-2.683 5.37-.895-.448.895.449-2.684 5.367-2.687 5.371-2.684 5.367-.894-.445.894.445-2.684 5.371-2.683 5.368-.895-.446.895.446-2.688 5.37-2.683 5.368-.895-.445.895.445-2.684 5.371-2.683 5.367-2.688 5.371-.894-.449.894.45-2.684 5.366-2.683 5.372-.895-.45.895.45-2.684 5.367-2.687 5.37-.895-.448.895.449-2.684 5.367-2.683 5.371-.895-.45.895.45-2.684 5.367-2.688 5.371-2.683 5.368-.895-.446.895.446-2.684 5.37-2.683 5.368-.895-.445.895.445-2.688 5.37-2.683 5.368-.895-.445.895.445-2.684 5.371-2.684 5.367-2.687 5.372-2.684 5.367-2.683 5.37-2.684 5.368-2.687 5.371-2.684 5.367-2.684 5.371-2.683 5.368-2.688 5.37-2.683 5.368-2.684 5.37-2.683 5.368-2.688 5.371-2.684 5.367-2.683 5.371-2.684 5.368-2.687 5.37-2.684 5.368-.894-.445.894.445-2.683 5.371-2.684 5.367-.894-.445.894.445-2.687 5.371-2.684 5.368-2.684 5.37-.894-.449.894.45-2.683 5.367-2.688 5.37-.894-.448.894.449-2.683 5.367-2.684 5.371-.894-.45.894.45-2.684 5.367-2.687 5.371-2.684 5.368-.894-.446.894.446-2.683 5.37-2.684 5.368-.894-.445.894.445-2.687 5.371-2.684 5.367-.894-.445.894.445-2.683 5.371-2.684 5.367-2.688 5.372-.894-.45.894.45-2.683 5.367-2.684 5.37-.894-.448.894.449-2.683 5.367-2.688 5.371-.894-.45.894.45-2.683 5.367-2.684 5.371-2.684 5.368-.894-.446.894.446-2.687 5.37-2.684 5.368-2.683 5.371-.895-.45.895.45-2.684 5.367-.894-.445.894.445-2.687 5.371-2.684 5.367-2.684 5.372-2.683 5.367-.895-.446.895.446-2.688 5.37-2.683 5.368-.895-.445.895.445-2.684 5.371-2.683 5.367L17 568.234l-.895-.449.895.45-2.684 5.367-2.683 5.37-.895-.449.895.45-2.684 5.367-2.687 5.367-.895-.445.895.445-2.684 5.371-.894-.45.894.45-2.683 5.367a.998.998 0 0 1-1.34.45.998.998 0 0 1-.45-1.34zm0 0" fill="#00cc52"/><path d="M.707-.707l2.684 2.684L6.078 4.66l2.684 2.688 5.367 5.367 2.687 2.683 2.684 2.688 5.367 5.367 2.688 2.684 2.683 2.687 340.938 340.938 2.687 2.683 2.684 2.688 5.367 5.367 2.688 2.684 2.683 2.687 5.367 5.367 2.688 2.684 2.683 2.687 2.684 2.684a1 1 0 1 1-1.414 1.414l-2.684-2.684-2.687-2.683-2.684-2.688-5.367-5.367-2.687-2.683-2.684-2.688-5.367-5.367-2.688-2.684-2.683-2.687L28.824 30.238l-2.687-2.683-2.684-2.688-5.367-5.367-2.688-2.684-2.683-2.687-5.367-5.367L4.66 6.078 1.977 3.391-.707.707A1 1 0 1 1 .707-.707zm0 0" fill="#f2190d"/><path d="M-.707 362.93l2.684-2.684.707.707-.707-.707 2.683-2.687.707.707-.707-.707 2.688-2.684 2.683-2.684.707.707-.707-.707 2.684-2.683 2.683-2.688.707.707-.707-.707 2.688-2.683 2.684-2.684.707.707-.707-.707 2.683-2.683 2.684-2.688.707.707-.707-.707 2.687-2.684 5.367-5.367.707.707-.707-.707 2.684-2.687 2.688-2.684.707.707-.708-.707 2.684-2.683.707.707-.707-.707 2.684-2.684 2.683-2.688 2.688-2.683 2.683-2.684.707.707-.707-.707 2.684-2.683 2.684-2.688 2.687-2.683 2.684-2.684.707.707-.707-.707 2.683-2.684.707.707-.707-.707 2.684-2.687 2.687-2.684 5.368-5.367.707.707-.707-.707 2.683-2.687 2.688-2.684 2.683-2.684.707.707-.707-.707 2.684-2.683 2.683-2.688.707.707-.707-.707 2.688-2.683 5.367-5.367 2.684-2.688.707.707-.707-.707 2.687-2.684 2.684-2.683.707.707-.707-.707 2.683-2.684 2.684-2.687.707.707-.707-.707 2.687-2.684 2.684-2.683.707.707-.707-.707 2.684-2.684 2.683-2.688 2.688-2.683.707.707-.707-.707 5.367-5.367.707.707-.707-.707 2.684-2.688 2.687-2.683 2.684-2.684.707.707-.707-.707 2.683-2.684 2.684-2.687.707.707-.707-.707 2.687-2.684 2.684-2.683.707.707-.707-.707 2.684-2.684 2.683-2.687 2.688-2.684.707.707-.707-.707 5.367-5.367.707.707-.707-.707 2.683-2.688 2.688-2.683.707.707-.707-.707 13.422-13.422.707.707-.707-.707 5.367-5.367.707.707-.707-.707 13.426-13.426.707.707-.707-.707 5.367-5.367.707.707-.707-.707 5.371-5.371.707.707-.707-.707 8.05-8.051.708.707-.707-.707 5.37-5.371.708.707-.707-.707 5.367-5.367.707.707-.707-.707 2.688-2.688.707.707-.707-.707 5.367-5.367.707.707-.707-.707 5.37-5.371.708.707-.707-.707 8.05-8.051.708.707-.707-.707 13.425-13.426.707.707-.707-.707 2.684-2.683.707.707-.707-.707 10.738-10.739.707.707-.707-.707 5.367-5.367.707.707-.707-.707 8.055-8.055.707.708-.707-.707 5.371-5.372.707.707-.707-.707 8.051-8.05.707.707-.707-.707 10.738-10.739.707.707-.707-.707 10.739-10.738.707.707-.707-.707 2.687-2.687.707.707-.707-.707 8.05-8.051.708.707-.707-.707 5.371-5.371.707.707-.707-.707 10.738-10.739.707.707-.707-.707 5.367-5.367.707.707-.707-.707 5.372-5.37.707.706-.707-.707 2.683-2.683.707.707-.707-.707 2.684-2.684 2.683-2.688 2.688-2.683 5.367-5.367.707.707-.707-.707 2.684-2.688 2.687-2.683.707.707-.707-.707 5.367-5.368.707.707-.707-.707 2.684-2.687 2.687-2.684 2.684-2.683a1 1 0 1 1 1.414 1.414l-2.684 2.683-.707-.707.707.707-2.683 2.684-.711-.707.71.707-5.37 5.371-.707-.707.707.707-5.367 5.367-.707-.707.707.707-13.426 13.426-.707-.707.707.707-5.367 5.367-.707-.707.707.707-8.055 8.055-.707-.707.707.707-10.738 10.738-.707-.707.707.707-5.368 5.367-.707-.707.707.707-5.37 5.371-.708-.707.707.707-2.683 2.684-.707-.707.707.707-13.422 13.422-.707-.707.707.707-10.738 10.738-.707-.707.707.707-8.055 8.055-.707-.707.707.707-5.371 5.371-.707-.707.707.707-8.051 8.05-.707-.706.707.707-5.371 5.37-.707-.706.707.707-10.738 10.738-.707-.707.707.707-13.422 13.422-.707-.707.707.707-10.738 10.738-.708-.707.708.707-5.372 5.371-.707-.707.707.707-5.367 5.368-.707-.707.707.707-8.054 8.054-.708-.707.708.707-5.368 5.367-.707-.707.707.707-13.425 13.426-.707-.707.707.707-5.368 5.367-.707-.707.707.707-18.793 18.793-.707-.707.707.707-18.793 18.793-.707-.707.707.707-5.367 5.368-.707-.708.707.708-13.422 13.421-.707-.707.707.707-5.37 5.371-.708-.707.707.708-13.422 13.421-.707-.707.707.707-5.37 5.371-.708-.71.707.71-8.05 8.051-.707-.707.707.707-2.688 2.684v.004l-2.684 2.683-.707-.707.707.707-5.367 5.368-.707-.707.707.707-2.687 2.683-2.684 2.688-.707-.707.707.707-5.367 5.367-2.688 2.683-2.683 2.688-.707-.707.707.707-5.367 5.367-.707-.707.707.707-2.688 2.684-2.683 2.687-2.684 2.684-.707-.707.707.707-2.684 2.683-2.687 2.684-2.684 2.687-5.367 5.368-.707-.707.707.707-2.687 2.683-2.684 2.688-5.367 5.367-.707-.707.707.707-2.688 2.684-2.683 2.687-5.367 5.367-2.688 2.684-.707-.707.707.707-2.684 2.687-2.683 2.684-.707-.707.707.707-8.055 8.055-.707-.707.707.707-10.738 10.738-.707-.707.707.707-5.367 5.367-.707-.707.707.707-2.684 2.684-.71-.707.71.707-5.371 5.37a1 1 0 1 1-1.414-1.413zm0 0" fill="#0e88d3"/><path d="M375.922 184.547c-.063-.063-.094-.121-.094-.172.043-.293.207-.66.5-1.11.5-.75 1.129-1.187 1.89-1.312.145-.02.255-.031.329-.031.375 0 .723.098 1.039.289.316.191.543.434.68.726l.25-.343c.394-.45.847-.672 1.359-.672.438 0 .793.125 1.07.375.278.25.414.558.414.922 0 .332-.093.613-.28.836a.933.933 0 0 1-.75.336.689.689 0 0 1-.493-.18.605.605 0 0 1-.195-.461c0-.488.265-.828.796-1.016 0-.011-.058-.047-.171-.109-.106-.063-.262-.094-.47-.094-.136 0-.233.012-.296.031-.406.176-.703.532-.89 1.063-.044.082-.2.676-.477 1.781-.278 1.106-.426 1.723-.445 1.86a2.638 2.638 0 0 0-.047.484c0 .262.074.465.226.61a.818.818 0 0 0 .586.218c.45 0 .856-.187 1.219-.562a2.88 2.88 0 0 0 .734-1.25c.031-.114.067-.18.102-.196a.833.833 0 0 1 .258-.023c.199 0 .296.043.296.125 0 .012-.011.074-.03.187-.177.657-.548 1.23-1.11 1.72-.512.394-1.043.593-1.594.593-.75 0-1.312-.332-1.687-1-.313.48-.707.797-1.188.953-.094.02-.234.031-.422.031-.613 0-1.05-.219-1.312-.656a1.226 1.226 0 0 1-.156-.64c0-.313.097-.583.289-.805a.919.919 0 0 1 .726-.336c.457 0 .688.222.688.672 0 .386-.184.672-.547.859-.02.012-.051.023-.086.04-.035.015-.067.026-.086.038a.093.093 0 0 1-.047.016l-.047.015c0 .032.082.078.25.141.125.05.262.078.406.078.387 0 .72-.238 1-.719.114-.187.325-.879.625-2.078.063-.238.13-.511.204-.812.074-.301.128-.535.164-.696a3.42 3.42 0 0 1 .07-.289 3.95 3.95 0 0 0 .078-.625c0-.25-.066-.449-.203-.601-.137-.153-.328-.227-.578-.227-.48 0-.895.184-1.242.555a3.184 3.184 0 0 0-.743 1.273c-.02.094-.043.149-.07.164-.027.016-.113.024-.258.024zm0 0M233.766 210.176c.28 0 .5-.094.687-.281a.996.996 0 0 0 .266-.688c0-.25-.094-.484-.25-.672a.818.818 0 0 0-.64-.281c-.063 0-.079 0-.079-.016 0 0 .016-.047.047-.11.031-.062.062-.124.094-.171.375-.547.875-.828 1.5-.828.656 0 1.172.234 1.547.719.359.484.546 1.062.546 1.765 0 .813-.359 1.703-1.062 2.672a88.87 88.87 0 0 1-2.266 2.563c-.875 1-1.328 1.515-1.344 1.515-.015.032-.03.157-.03.375v.297h5.937v-.047l.453-2.937v-.047h-.64v.047c-.095.61-.173.984-.22 1.094-.062.218-.125.343-.171.343-.094.063-.985.078-2.672.078l-1.219-.015.953-.906c.688-.641 1.219-1.125 1.594-1.47.922-.765 1.531-1.39 1.812-1.843.391-.547.563-1.11.563-1.734 0-.172 0-.344-.031-.532a3.032 3.032 0 0 0-1.11-1.937c-.61-.5-1.36-.75-2.281-.75-.813 0-1.516.281-2.078.828-.578.547-.89 1.203-.89 1.969 0 .281.093.515.265.703.172.187.406.297.719.297zm0 0M275.39 217.066h.141v-.734h-.453c-.531 0-.828-.047-.922-.125-.062-.047-.094-.11-.094-.203v-1.578h1.47v-.735h-1.47v-7.359l-.093-.11h-.281c-.22 0-.329.032-.344.048-.031.015-.844 1.25-2.485 3.718l-2.406 3.703v.735h4.14v.797c0 .562-.015.859-.015.875-.047.093-.11.14-.187.156-.11.047-.407.078-.86.078h-.484v.734h.14c.141-.03.86-.046 2.141-.046 1.219 0 1.906.015 2.063.046zm-2.702-3.375h-1.766l-1.735-.015 3.5-5.328zm0 0M310.969 207.426c-.516.094-.75.375-.75.86 0 .265.062.468.219.624.171.156.375.219.625.219.265 0 .453-.078.609-.234a.91.91 0 0 0 .25-.641c0-.578-.203-1.031-.578-1.375-.39-.313-.89-.484-1.516-.484-.672 0-1.297.203-1.86.609-.734.469-1.28 1.14-1.687 2.016-.422.859-.61 1.875-.61 3.015 0 1.703.298 3.047.938 4.047.47.703 1.094 1.125 1.875 1.266.172.047.36.062.547.062.266 0 .485-.015.64-.078.579-.11 1.095-.406 1.532-.89.547-.547.875-1.141 1-1.782.063-.203.078-.422.078-.672v-.281c0-.625-.11-1.203-.328-1.734a4.833 4.833 0 0 0-.625-.891 3.229 3.229 0 0 0-.781-.656 2.79 2.79 0 0 0-1.297-.313c-.734 0-1.328.328-1.766.969l-.125.203-.015-.062c0-1.453.25-2.532.75-3.22.5-.64 1.125-.952 1.875-.952.422.031.765.156 1 .375zm-.703 3.86c.156.234.25.484.296.796.047.313.079.781.079 1.39v.5c0 .579-.032 1.032-.079 1.344-.046.313-.14.579-.296.813-.282.39-.704.61-1.25.61-.344 0-.657-.126-.907-.344a1.677 1.677 0 0 1-.546-.813c-.125-.375-.188-1.031-.188-1.969 0-1.172.25-2.015.781-2.547a1.32 1.32 0 0 1 .953-.375c.47 0 .86.22 1.157.594zm0 0M343.75 211.691c-1.375.766-2.063 1.72-2.063 2.875 0 .547.125 1.016.407 1.391.61.969 1.578 1.453 2.89 1.453.954 0 1.735-.312 2.375-.922.641-.61.954-1.36.954-2.218 0-.954-.391-1.75-1.204-2.391-.03-.016-.328-.219-.921-.625l.187-.125c.797-.516 1.297-1.125 1.453-1.828.016-.094.031-.25.031-.485 0-.187-.015-.312-.015-.375-.125-.609-.453-1.093-.985-1.468-.546-.391-1.171-.563-1.89-.563-.594 0-1.125.14-1.563.422a2.765 2.765 0 0 0-1.031 1.172c-.172.312-.25.687-.25 1.156 0 .61.125 1.094.406 1.469.297.375.688.719 1.219 1.062zm3.188-2.859c0 .688-.282 1.234-.86 1.688-.062.062-.172.14-.297.218-.125.094-.203.14-.203.14l-.922-.608c-.64-.391-.984-.61-1.031-.672a1.241 1.241 0 0 1-.578-1.094c0-.344.125-.625.406-.875.375-.39.844-.578 1.422-.578.266 0 .453.015.531.015a2.03 2.03 0 0 1 1.078.61c.297.312.454.719.454 1.156zm-4.22 5.703c0-.219.032-.484.126-.765.203-.625.656-1.157 1.328-1.579l.187-.109.125.094c.094.062.235.14.407.25.171.11.328.219.5.312.796.516 1.234.828 1.328.922.36.344.562.75.562 1.219 0 .297-.11.594-.281.86a2.113 2.113 0 0 1-.813.702c-.359.188-.75.266-1.187.266-.61 0-1.156-.187-1.594-.594-.469-.422-.687-.937-.687-1.578zm0 0M157.172 214.191h4.266v-1.171h-4.266zm6.594-4.015c.28 0 .5-.094.687-.281a.996.996 0 0 0 .266-.688c0-.25-.094-.484-.25-.672a.818.818 0 0 0-.64-.281c-.063 0-.079 0-.079-.016 0 0 .016-.047.047-.11.031-.062.062-.124.094-.171.375-.547.875-.828 1.5-.828.656 0 1.172.234 1.547.719.359.484.546 1.062.546 1.765 0 .813-.359 1.703-1.062 2.672a88.87 88.87 0 0 1-2.266 2.563c-.875 1-1.328 1.515-1.344 1.515-.015.032-.03.157-.03.375v.297h5.937v-.047l.453-2.937v-.047h-.64v.047c-.095.61-.173.984-.22 1.094-.062.218-.125.343-.171.343-.094.063-.985.078-2.672.078l-1.219-.015.953-.906c.688-.641 1.219-1.125 1.594-1.47.922-.765 1.531-1.39 1.812-1.843.391-.547.563-1.11.563-1.734 0-.172 0-.344-.031-.532a3.032 3.032 0 0 0-1.11-1.937c-.61-.5-1.36-.75-2.281-.75-.813 0-1.516.281-2.078.828-.578.547-.89 1.203-.89 1.969 0 .281.093.515.265.703.172.187.406.297.719.297zm0 0M120.172 214.191h4.266v-1.171h-4.266zm12.219 2.875h.14v-.734h-.453c-.531 0-.828-.047-.922-.125-.062-.047-.094-.11-.094-.203v-1.578h1.47v-.735h-1.47v-7.359l-.093-.11h-.281c-.22 0-.329.032-.344.048-.031.015-.844 1.25-2.485 3.718l-2.406 3.703v.735h4.14v.797c0 .562-.015.859-.015.875-.047.093-.11.14-.187.156-.11.047-.407.078-.86.078h-.484v.734h.14c.141-.03.86-.046 2.141-.046 1.219 0 1.906.015 2.063.046zm-2.703-3.375h-1.766l-1.734-.015 3.5-5.328zm0 0M84.172 214.191h4.266v-1.171h-4.266zm10.797-6.765c-.516.094-.75.375-.75.86 0 .265.062.468.219.624.171.156.374.219.624.219.266 0 .454-.078.61-.234a.91.91 0 0 0 .25-.641c0-.578-.203-1.031-.578-1.375-.39-.313-.89-.484-1.516-.484-.672 0-1.297.203-1.86.609-.734.469-1.28 1.14-1.687 2.016-.422.859-.61 1.875-.61 3.015 0 1.703.298 3.047.938 4.047.47.703 1.094 1.125 1.875 1.266.172.047.36.062.547.062.266 0 .485-.015.64-.078.579-.11 1.095-.406 1.532-.89.547-.547.875-1.141 1-1.782.063-.203.078-.422.078-.672v-.281c0-.625-.11-1.203-.328-1.734a4.833 4.833 0 0 0-.625-.891 3.229 3.229 0 0 0-.781-.656 2.79 2.79 0 0 0-1.297-.313c-.734 0-1.328.328-1.766.969l-.125.203-.015-.062c0-1.453.25-2.532.75-3.22.5-.64 1.125-.952 1.875-.952.422.031.765.156 1 .375zm-.703 3.86c.156.234.25.484.296.796.047.313.079.781.079 1.39v.5c0 .579-.032 1.032-.079 1.344-.046.313-.14.579-.296.813-.282.39-.704.61-1.25.61-.344 0-.657-.126-.907-.344a1.677 1.677 0 0 1-.546-.813c-.126-.375-.188-1.031-.188-1.969 0-1.172.25-2.015.781-2.547a1.32 1.32 0 0 1 .953-.375c.47 0 .86.22 1.157.594zm0 0M48.172 214.191h4.266v-1.171h-4.266zm7.578-2.5c-1.375.766-2.063 1.72-2.063 2.875 0 .547.126 1.016.407 1.391.61.969 1.578 1.453 2.89 1.453.953 0 1.735-.312 2.375-.922.641-.61.953-1.36.953-2.218 0-.954-.39-1.75-1.203-2.391-.03-.016-.328-.219-.922-.625l.188-.125c.797-.516 1.297-1.125 1.453-1.828.016-.094.031-.25.031-.485 0-.187-.015-.312-.015-.375-.125-.609-.453-1.093-.985-1.468-.547-.391-1.172-.563-1.89-.563-.594 0-1.125.14-1.563.422a2.765 2.765 0 0 0-1.031 1.172c-.172.312-.25.687-.25 1.156 0 .61.125 1.094.406 1.469.297.375.688.719 1.219 1.062zm3.188-2.859c0 .688-.282 1.234-.86 1.688-.062.062-.172.14-.297.218-.125.094-.203.14-.203.14l-.922-.608c-.64-.391-.984-.61-1.031-.672a1.241 1.241 0 0 1-.578-1.094c0-.344.125-.625.406-.875.375-.39.844-.578 1.422-.578.266 0 .453.015.531.015a2.03 2.03 0 0 1 1.078.61c.297.312.453.719.453 1.156zm-4.22 5.703c0-.219.032-.484.126-.765.203-.625.656-1.157 1.328-1.579l.187-.109.125.094c.094.062.235.14.407.25.172.11.328.219.5.312.797.516 1.234.828 1.328.922.36.344.562.75.562 1.219 0 .297-.11.594-.281.86a2.113 2.113 0 0 1-.813.702c-.359.188-.75.266-1.187.266-.61 0-1.156-.187-1.594-.594-.468-.422-.687-.937-.687-1.578zm0 0M217.39 6.094c.157 0 .286.043.391.125a.393.393 0 0 1 .156.328c0 .137-.261 1.254-.78 3.36-.52 2.105-.817 3.261-.891 3.468a4.362 4.362 0 0 1-.836 1.445c-.38.442-.82.79-1.32 1.04-.575.28-1.11.421-1.61.421-.813 0-1.363-.254-1.656-.765-.106-.157-.156-.371-.156-.641 0-.363.105-.645.312-.844.219-.207.453-.312.703-.312.469 0 .703.222.703.672 0 .394-.187.683-.562.859-.02.012-.047.027-.078.047l-.078.047a.124.124 0 0 1-.063.015l-.047.016c.031.063.145.129.344.203.168.063.34.094.516.094h.125c.175 0 .316-.012.421-.031.395-.114.778-.387 1.141-.813.363-.426.645-.941.844-1.547.113-.344.172-.55.172-.625 0-.011-.012-.004-.032.016a.808.808 0 0 1-.093.078 2.21 2.21 0 0 1-1.313.422c-.55 0-1.004-.129-1.351-.383-.348-.254-.575-.621-.68-1.101a4.3 4.3 0 0 1-.016-.493c0-.254.012-.457.031-.601.075-.457.317-1.239.735-2.344.23-.637.344-1.074.344-1.313 0-.156-.012-.261-.04-.32-.027-.058-.085-.086-.18-.086h-.077c-.25 0-.485.114-.703.344-.344.332-.61.844-.797 1.531a.147.147 0 0 1-.016.055.23.23 0 0 1-.023.047l-.024.023c-.011.012-.027.016-.054.016H210.437c-.062-.063-.093-.11-.093-.14 0-.032.015-.106.047-.22.218-.75.55-1.332 1-1.75.363-.343.746-.515 1.14-.515.45 0 .805.121 1.07.367.266.246.399.586.399 1.024-.02.207-.035.324-.047.343 0 .063-.078.293-.234.688-.438 1.187-.703 2.058-.797 2.61a2.823 2.823 0 0 0-.016.358c0 .407.067.715.196.93.128.215.367.32.71.32.239 0 .47-.062.688-.187.219-.125.387-.25.5-.375.113-.125.254-.293.422-.5 0-.012.027-.121.086-.328.058-.207.137-.52.234-.938.098-.418.196-.812.29-1.187.405-1.606.628-2.442.671-2.516.145-.293.375-.437.688-.437zm0 0M184.766 160.176c.28 0 .5-.094.687-.281a.996.996 0 0 0 .266-.688c0-.25-.094-.484-.25-.672a.818.818 0 0 0-.64-.281c-.063 0-.079 0-.079-.016 0 0 .016-.047.047-.11.031-.062.062-.124.094-.171.375-.547.875-.828 1.5-.828.656 0 1.172.234 1.547.719.359.484.546 1.062.546 1.765 0 .813-.359 1.703-1.062 2.672a88.87 88.87 0 0 1-2.266 2.563c-.875 1-1.328 1.515-1.344 1.515-.015.032-.03.157-.03.375v.297h5.937v-.047l.453-2.937v-.047h-.64v.047c-.095.61-.173.984-.22 1.094-.062.218-.125.343-.171.343-.094.063-.985.078-2.672.078l-1.219-.015.953-.906c.688-.641 1.219-1.125 1.594-1.47.922-.765 1.531-1.39 1.812-1.843.391-.547.563-1.11.563-1.734 0-.172 0-.344-.031-.532a3.032 3.032 0 0 0-1.11-1.937c-.61-.5-1.36-.75-2.281-.75-.813 0-1.516.281-2.078.828-.578.547-.89 1.203-.89 1.969 0 .281.093.515.265.703.172.187.406.297.719.297zm0 0M190.39 130.066h.141v-.734h-.453c-.531 0-.828-.047-.922-.125-.062-.047-.094-.11-.094-.203v-1.578h1.47v-.735h-1.47v-7.359l-.093-.11h-.281c-.22 0-.329.032-.344.048-.031.015-.844 1.25-2.485 3.718l-2.406 3.703v.735h4.14v.797c0 .562-.015.859-.015.875-.047.093-.11.14-.187.156-.11.047-.407.078-.86.078h-.484v.734h.14c.141-.03.86-.046 2.141-.046 1.219 0 1.906.015 2.063.046zm-2.702-3.375h-1.766l-1.734-.015 3.5-5.328zm0 0M188.969 84.426c-.516.094-.75.375-.75.86 0 .265.062.468.219.624.171.156.375.219.625.219.265 0 .453-.078.609-.234a.91.91 0 0 0 .25-.641c0-.578-.203-1.031-.578-1.375-.39-.313-.89-.484-1.516-.484-.672 0-1.297.203-1.86.609-.734.469-1.28 1.14-1.687 2.016-.422.859-.61 1.875-.61 3.015 0 1.703.298 3.047.938 4.047.47.703 1.094 1.125 1.875 1.266.172.047.36.062.547.062.266 0 .485-.015.64-.078.579-.11 1.095-.406 1.532-.89.547-.547.875-1.141 1-1.782.063-.203.078-.422.078-.672v-.281c0-.625-.11-1.203-.328-1.734a4.833 4.833 0 0 0-.625-.891 3.229 3.229 0 0 0-.781-.656 2.79 2.79 0 0 0-1.297-.313c-.734 0-1.328.328-1.766.969l-.125.203-.015-.062c0-1.453.25-2.532.75-3.22.5-.64 1.125-.952 1.875-.952.422.031.765.156 1 .375zm-.703 3.86c.156.234.25.484.297.796.046.313.078.781.078 1.39v.5c0 .579-.032 1.032-.078 1.344-.047.313-.141.579-.297.813-.282.39-.703.61-1.25.61-.344 0-.657-.126-.907-.344a1.677 1.677 0 0 1-.547-.813c-.125-.375-.187-1.031-.187-1.969 0-1.172.25-2.015.781-2.547a1.32 1.32 0 0 1 .953-.375c.47 0 .86.22 1.157.594zm0 0M185.75 52.691c-1.375.766-2.063 1.72-2.063 2.875 0 .547.125 1.016.407 1.391.61.969 1.578 1.453 2.89 1.453.953 0 1.735-.312 2.375-.922.641-.61.953-1.36.953-2.218 0-.954-.39-1.75-1.203-2.391-.03-.016-.328-.219-.922-.625l.188-.125c.797-.516 1.297-1.125 1.453-1.828.016-.094.031-.25.031-.485 0-.187-.015-.312-.015-.375-.125-.609-.453-1.093-.985-1.468-.547-.391-1.172-.563-1.89-.563-.594 0-1.125.14-1.563.422a2.765 2.765 0 0 0-1.031 1.172c-.172.312-.25.687-.25 1.156 0 .61.125 1.094.406 1.469.297.375.688.719 1.219 1.062zm3.188-2.859c0 .688-.282 1.234-.86 1.688-.062.062-.172.14-.297.218-.125.094-.203.14-.203.14l-.922-.608c-.64-.391-.984-.61-1.031-.672a1.241 1.241 0 0 1-.578-1.094c0-.344.125-.625.406-.875.375-.39.844-.578 1.422-.578.266 0 .453.015.531.015a2.03 2.03 0 0 1 1.078.61c.297.312.453.719.453 1.156zm-4.22 5.703c0-.219.032-.484.126-.765.203-.625.656-1.157 1.328-1.579l.187-.109.125.094c.094.062.235.14.407.25.172.11.328.219.5.312.797.516 1.234.828 1.328.922.36.344.562.75.562 1.219 0 .297-.11.594-.281.86a2.113 2.113 0 0 1-.813.702c-.359.188-.75.266-1.187.266-.61 0-1.156-.187-1.594-.594-.469-.422-.687-.937-.687-1.578zm0 0M178.172 236.191h4.266v-1.171h-4.266zm6.594-4.015c.28 0 .5-.094.687-.281a.996.996 0 0 0 .266-.688c0-.25-.094-.484-.25-.672a.818.818 0 0 0-.64-.281c-.063 0-.079 0-.079-.016 0 0 .016-.047.047-.11.031-.062.062-.124.094-.171.375-.547.875-.828 1.5-.828.656 0 1.172.234 1.547.719.359.484.546 1.062.546 1.765 0 .813-.359 1.703-1.062 2.672a88.87 88.87 0 0 1-2.266 2.563c-.875 1-1.328 1.515-1.344 1.515-.015.032-.03.157-.03.375v.297h5.937v-.047l.453-2.937v-.047h-.64v.047c-.095.61-.173.984-.22 1.094-.062.218-.125.343-.171.343-.094.063-.985.078-2.672.078l-1.219-.015.953-.906c.688-.641 1.219-1.125 1.594-1.47.922-.765 1.531-1.39 1.812-1.843.391-.547.563-1.11.563-1.734 0-.172 0-.344-.031-.532a3.032 3.032 0 0 0-1.11-1.937c-.61-.5-1.36-.75-2.281-.75-.813 0-1.516.281-2.078.828-.578.547-.89 1.203-.89 1.969 0 .281.093.515.265.703.172.187.406.297.719.297zm0 0M178.172 273.191h4.266v-1.171h-4.266zm12.219 2.875h.14v-.734h-.453c-.531 0-.828-.047-.922-.125-.062-.047-.094-.11-.094-.203v-1.578h1.47v-.735h-1.47v-7.359l-.093-.11h-.281c-.22 0-.329.032-.344.048-.031.015-.844 1.25-2.485 3.718l-2.406 3.703v.735h4.14v.797c0 .562-.015.859-.015.875-.047.093-.11.14-.187.156-.11.047-.407.078-.86.078h-.484v.734h.14c.141-.03.86-.046 2.141-.046 1.219 0 1.906.015 2.063.046zm-2.703-3.375h-1.766l-1.734-.015 3.5-5.328zm0 0M178.172 309.191h4.266v-1.171h-4.266zm10.797-6.765c-.516.094-.75.375-.75.86 0 .265.062.468.219.624.171.156.375.219.625.219.265 0 .453-.078.609-.234a.91.91 0 0 0 .25-.641c0-.578-.203-1.031-.578-1.375-.39-.313-.89-.484-1.516-.484-.672 0-1.297.203-1.86.609-.734.469-1.28 1.14-1.687 2.016-.422.859-.61 1.875-.61 3.015 0 1.703.298 3.047.938 4.047.47.703 1.094 1.125 1.875 1.266.172.047.36.062.547.062.266 0 .485-.015.64-.078.579-.11 1.095-.406 1.532-.89.547-.547.875-1.141 1-1.782.063-.203.078-.422.078-.672v-.281c0-.625-.11-1.203-.328-1.734a4.833 4.833 0 0 0-.625-.891 3.229 3.229 0 0 0-.781-.656 2.79 2.79 0 0 0-1.297-.313c-.734 0-1.328.328-1.766.969l-.125.203-.015-.062c0-1.453.25-2.532.75-3.22.5-.64 1.125-.952 1.875-.952.422.031.765.156 1 .375zm-.703 3.86c.156.234.25.484.297.796.046.313.078.781.078 1.39v.5c0 .579-.032 1.032-.078 1.344-.047.313-.141.579-.297.813-.282.39-.703.61-1.25.61-.344 0-.657-.126-.907-.344a1.677 1.677 0 0 1-.547-.813c-.125-.375-.187-1.031-.187-1.969 0-1.172.25-2.015.781-2.547a1.32 1.32 0 0 1 .953-.375c.47 0 .86.22 1.157.594zm0 0M178.172 345.191h4.266v-1.171h-4.266zm7.578-2.5c-1.375.766-2.063 1.72-2.063 2.875 0 .547.125 1.016.407 1.391.61.969 1.578 1.453 2.89 1.453.953 0 1.735-.312 2.375-.922.641-.61.953-1.36.953-2.218 0-.954-.39-1.75-1.203-2.391-.03-.016-.328-.219-.922-.625l.188-.125c.797-.516 1.297-1.125 1.453-1.828.016-.094.031-.25.031-.485 0-.187-.015-.312-.015-.375-.125-.609-.453-1.093-.985-1.468-.547-.391-1.172-.563-1.89-.563-.594 0-1.125.14-1.563.422a2.765 2.765 0 0 0-1.031 1.172c-.172.312-.25.687-.25 1.156 0 .61.125 1.094.406 1.469.297.375.688.719 1.219 1.062zm3.188-2.859c0 .688-.282 1.234-.86 1.688-.062.062-.172.14-.297.218-.125.094-.203.14-.203.14l-.922-.608c-.64-.391-.984-.61-1.031-.672a1.241 1.241 0 0 1-.578-1.094c0-.344.125-.625.406-.875.375-.39.844-.578 1.422-.578.266 0 .453.015.531.015a2.03 2.03 0 0 1 1.078.61c.297.312.453.719.453 1.156zm-4.22 5.703c0-.219.032-.484.126-.765.203-.625.656-1.157 1.328-1.579l.187-.109.125.094c.094.062.235.14.407.25.172.11.328.219.5.312.797.516 1.234.828 1.328.922.36.344.562.75.562 1.219 0 .297-.11.594-.281.86a2.113 2.113 0 0 1-.813.702c-.359.188-.75.266-1.187.266-.61 0-1.156-.187-1.594-.594-.469-.422-.687-.937-.687-1.578zm0 0"/><path d="M139 21.7h13a3 3 0 0 1 3 3v20a3 3 0 0 1-3 3h-13a3 3 0 0 1-3-3v-20a3 3 0 0 1 3-3zm1 2h11c1.105 0 2 .894 2 2v18c0 1.105-.895 2-2 2h-11c-1.105 0-2-.895-2-2v-18c0-1.106.895-2 2-2zm0 0" fill-rule="evenodd" fill="#00f"/><path d="M139 22.7h13c1.105 0 2 .894 2 2v20c0 1.105-.895 2-2 2h-13c-1.105 0-2-.895-2-2v-20c0-1.106.895-2 2-2zm0 0" fill-rule="evenodd" fill="#9696ff"/><path d="M140.672 38.7c-.074-.071-.11-.13-.11-.173 0-.039.02-.132.055-.273a.803.803 0 0 1 .086-.242l.063-.047H141c.738-.031 1.281-.297 1.625-.797.063-.063 1.031-1.691 2.906-4.89 1.875-3.196 2.824-4.813 2.844-4.844.05-.094.102-.149.148-.164.047-.016.168-.024.368-.024h.265a.959.959 0 0 1 .094.156l.453 5.172c.293 3.45.453 5.188.484 5.219.051.117.395.172 1.032.172.113 0 .199.004.25.008.05.007.09.02.117.039.027.023.039.058.039.11 0 .023-.016.093-.047.218-.031.168-.062.27-.094.305-.03.039-.105.054-.218.054-.188 0-.504-.004-.946-.015-.441-.008-.8-.016-1.07-.016-1 0-1.656.012-1.969.031h-.187c-.063-.062-.098-.105-.102-.133a1.783 1.783 0 0 1 .04-.304 1.59 1.59 0 0 1 .093-.25l.063-.047h.312c.582-.02.926-.113 1.031-.281l-.187-2.391h-3.813l-.547.922c-.386.648-.582.996-.593 1.047a.527.527 0 0 0-.063.234c0 .274.246.43.734.469.208 0 .313.055.313.156a.733.733 0 0 1-.047.219c-.031.156-.066.258-.101.297-.036.043-.106.062-.211.062-.176 0-.465-.004-.86-.015-.394-.008-.699-.016-.906-.016-.75 0-1.234.012-1.453.031zm7.594-4.157c0-.125-.067-.961-.203-2.508-.137-1.547-.208-2.324-.22-2.336l-.437.688c-.168.293-.5.867-1 1.718l-1.437 2.438 1.64.016c1.106 0 1.657-.004 1.657-.016zm0 0"/><path d="M121 330.7h14a3 3 0 0 1 3 3v20a3 3 0 0 1-3 3h-14a3 3 0 0 1-3-3v-20a3 3 0 0 1 3-3zm1 2h12c1.105 0 2 .894 2 2v18c0 1.105-.895 2-2 2h-12c-1.105 0-2-.895-2-2v-18c0-1.106.895-2 2-2zm0 0" fill-rule="evenodd" fill="#00cc52"/><path d="M121 331.7h14c1.105 0 2 .894 2 2v20c0 1.105-.895 2-2 2h-14c-1.105 0-2-.895-2-2v-20c0-1.106.895-2 2-2zm0 0" fill-rule="evenodd" fill="#96f596"/><path d="M126.61 337.652a.072.072 0 0 0-.016-.039.1.1 0 0 0-.047-.031.157.157 0 0 1-.063-.031.218.218 0 0 0-.093-.031c-.043-.004-.082-.008-.118-.008h-.132c-.051 0-.098 0-.133-.008a1.355 1.355 0 0 0-.149-.008h-.156c-.262 0-.418-.004-.469-.016a.134.134 0 0 1-.109-.093c-.02-.032-.016-.125.016-.282.05-.195.097-.304.14-.328.012-.007.703-.015 2.078-.015 2.77 0 4.23.011 4.375.031.739.117 1.313.375 1.72.781.425.399.64.871.64 1.422 0 .375-.098.734-.297 1.078-.238.43-.617.817-1.133 1.164a4.393 4.393 0 0 1-1.617.696l-.156.046c.699.106 1.261.352 1.695.743a1.9 1.9 0 0 1 .648 1.476c0 .762-.347 1.48-1.047 2.156a4.667 4.667 0 0 1-2.937 1.329c-.074.011-1.2.015-3.375.015-2.137 0-3.219-.008-3.25-.031a.142.142 0 0 1-.063-.125c0-.07.012-.148.032-.234.05-.196.105-.305.156-.329.043-.007.125-.015.25-.015h.094c.281 0 .597-.016.953-.047.144-.031.25-.094.312-.188.032-.05.414-1.539 1.149-4.46.734-2.922 1.101-4.461 1.101-4.618zm5.78 1.344c0-.363-.093-.672-.28-.93a1.347 1.347 0 0 0-.75-.507c-.075-.032-.563-.051-1.47-.063-.206 0-.433.004-.671.008-.239.008-.426.008-.563.008h-.203c-.156.011-.254.054-.297.125-.031.043-.207.715-.531 2.015a92.931 92.931 0 0 0-.5 2.063h1.297c.863 0 1.36-.008 1.484-.031.438-.07.852-.247 1.242-.524.391-.273.692-.601.899-.976.23-.407.344-.801.344-1.188zm-.859 5.031c0-.468-.129-.855-.383-1.164a1.476 1.476 0 0 0-.945-.539c-.074-.008-.52-.015-1.344-.015-1.25 0-1.879.007-1.89.015 0 .024-.094.41-.281 1.164l-.563 2.258-.281 1.125c0 .043.062.067.187.07.125.008.559.016 1.297.024.95 0 1.457-.004 1.531-.016.7-.07 1.317-.383 1.86-.93.543-.546.812-1.21.812-1.992zm0 0"/><path d="M302 294.7h13a3 3 0 0 1 3 3v20a3 3 0 0 1-3 3h-13a3 3 0 0 1-3-3v-20a3 3 0 0 1 3-3zm1 2h11c1.105 0 2 .894 2 2v18c0 1.105-.895 2-2 2h-11c-1.105 0-2-.895-2-2v-18c0-1.106.895-2 2-2zm0 0" fill-rule="evenodd" fill="#f2190d"/><path d="M302 295.7h13c1.105 0 2 .894 2 2v20c0 1.105-.895 2-2 2h-13c-1.105 0-2-.895-2-2v-20c0-1.106.895-2 2-2zm0 0" fill-rule="evenodd" fill="#ff9696"/><path d="M313.422 303.996c0-.883-.195-1.578-.586-2.086-.39-.504-.95-.758-1.68-.758-.562 0-1.172.137-1.828.407-1.156.492-2.058 1.312-2.703 2.468-.594 1.043-.965 2.262-1.11 3.657a4.25 4.25 0 0 0-.015.468c0 1.211.406 2.086 1.219 2.625.511.356 1.14.532 1.89.532.395 0 .84-.086 1.329-.266.625-.258 1.19-.68 1.703-1.266a4.93 4.93 0 0 0 1.062-1.922c.043-.132.074-.21.102-.234.027-.02.105-.031.242-.031.23 0 .344.043.344.125 0 .023-.012.074-.032.156-.261.95-.773 1.805-1.539 2.563-.765.761-1.632 1.25-2.601 1.468a3.964 3.964 0 0 1-1.11.157c-1.105 0-2.027-.313-2.773-.946-.746-.629-1.223-1.433-1.43-2.414-.074-.3-.11-.644-.11-1.031 0-1.281.403-2.523 1.204-3.734a8.25 8.25 0 0 1 1.773-1.954 7.416 7.416 0 0 1 2.336-1.265c.637-.188 1.215-.281 1.735-.281.386 0 .61.007.672.015a2.933 2.933 0 0 1 1.609.797.877.877 0 0 1 .14.156c.063.086.118.16.165.227.047.07.074.101.086.101.03 0 .175-.14.437-.421.074-.063.152-.133.235-.22.082-.081.167-.171.257-.265s.145-.148.164-.172l.235-.234h.094c.156 0 .234.039.234.11 0 .042-.172.773-.516 2.187a263.638 263.638 0 0 0-.578 2.25c-.02.055-.047.086-.078.101-.031.016-.129.024-.297.024h-.25a.407.407 0 0 1-.086-.102 2.27 2.27 0 0 1 .024-.289c.02-.207.03-.441.03-.703zm0 0"/><path d="M302 40.7h15a3 3 0 0 1 3 3v20a3 3 0 0 1-3 3h-15a3 3 0 0 1-3-3v-20a3 3 0 0 1 3-3zm1 2h13c1.105 0 2 .894 2 2v18c0 1.105-.895 2-2 2h-13c-1.105 0-2-.895-2-2v-18c0-1.106.895-2 2-2zm0 0" fill-rule="evenodd" fill="#0e88d3"/><path d="M302 41.7h15c1.105 0 2 .894 2 2v20c0 1.105-.895 2-2 2h-15c-1.105 0-2-.895-2-2v-20c0-1.106.895-2 2-2zm0 0" fill-rule="evenodd" fill="#96a3fd"/><path d="M307.594 47.652a.072.072 0 0 0-.016-.039.1.1 0 0 0-.047-.031.157.157 0 0 1-.062-.031.218.218 0 0 0-.094-.031c-.043-.004-.082-.008-.117-.008h-.133c-.05 0-.098 0-.133-.008a1.355 1.355 0 0 0-.148-.008h-.156c-.364 0-.563-.035-.594-.11-.012-.03 0-.116.031-.265.05-.207.098-.32.14-.344.02-.007 1.083-.015 3.188-.015 1.781.011 2.777.02 2.992.023.215.008.426.035.633.086.844.2 1.52.645 2.024 1.336.503.695.757 1.555.757 2.586a6.05 6.05 0 0 1-.203 1.578c-.293 1.211-.918 2.305-1.875 3.281-1.074 1.106-2.297 1.774-3.672 2l-.234.032-3.094.015H305c-.95 0-1.426-.023-1.438-.078v-.016a.273.273 0 0 1-.03-.078c0-.02.015-.097.046-.234.043-.164.082-.262.125-.29.043-.023.168-.038.375-.038.281 0 .598-.016.953-.047.145-.031.25-.094.313-.188.031-.05.414-1.539 1.148-4.46.735-2.922 1.102-4.461 1.102-4.618zm6.656 2.547c0-.789-.207-1.414-.625-1.875-.418-.457-.996-.726-1.734-.812h-.227c-.129 0-.289 0-.476-.008-.188-.004-.364-.008-.524-.008-.16 0-.336.004-.523.008-.188.008-.344.008-.47.008h-.202c-.137.011-.235.062-.297.156-.02.043-.41 1.578-1.164 4.61-.754 3.03-1.133 4.562-1.133 4.593 0 .043.059.066.18.07.12.008.527.008 1.226.008.864 0 1.348-.004 1.453-.015 1.02-.164 1.875-.594 2.563-1.282.387-.382.7-.832.945-1.343.246-.508.473-1.188.688-2.032.215-.843.32-1.535.32-2.078zm0 0"/></svg>